<?xml version="1.0" encoding="UTF-8"?><svg xmlns="http://www.w3.org/2000/svg" xmlns:xlink="http://www.w3.org/1999/xlink" viewBox="0 0 363.26 112.66"><defs><style>.cls-1{fill:none;}.cls-2{fill:url(#linear-gradient);}.cls-3{clip-path:url(#clippath);}.cls-4{fill:#fff;}.cls-5{fill:#282327;}.cls-6{clip-path:url(#clippath-1);}.cls-7{clip-path:url(#clippath-2);}.cls-8{fill:url(#linear-gradient-2);}.cls-9{mix-blend-mode:darken;opacity:.36;}.cls-10{isolation:isolate;}</style><clipPath id="clippath"><rect class="cls-1" x="50.92" y="36.53" width="39.6" height="39.6"/></clipPath><linearGradient id="linear-gradient" x1="-640.39" y1="732.22" x2="-639.66" y2="732.22" gradientTransform="translate(39387.69 -34309.96) rotate(-90) scale(53.7 -53.7)" gradientUnits="userSpaceOnUse"><stop offset="0" stop-color="#592262"/><stop offset=".06" stop-color="#68286a"/><stop offset=".24" stop-color="#90377f"/><stop offset=".39" stop-color="#a9418d"/><stop offset=".47" stop-color="#b34592"/><stop offset=".59" stop-color="#ad418f"/><stop offset=".74" stop-color="#9c3987"/><stop offset=".91" stop-color="#822b7b"/><stop offset="1" stop-color="#712274"/></linearGradient><clipPath id="clippath-1"><rect class="cls-1" x="50.92" y="36.53" width="39.6" height="39.6"/></clipPath><clipPath id="clippath-2"><rect class="cls-1" x="50.92" y="36.53" width="39.6" height="39.6"/></clipPath><linearGradient id="linear-gradient-2" x1="-639.1" y1="751.33" x2="-638.37" y2="751.33" gradientTransform="translate(34368.49 40399.77) scale(53.7 -53.7)" gradientUnits="userSpaceOnUse"><stop offset="0" stop-color="#000"/><stop offset=".04" stop-color="#000"/><stop offset=".28" stop-color="#3c1930"/><stop offset=".52" stop-color="#74315c"/><stop offset=".73" stop-color="#9c437d"/><stop offset=".9" stop-color="#b54e91"/><stop offset="1" stop-color="#bf5299"/></linearGradient></defs><g class="cls-10"><g id="Calque_1"><g><g><g class="cls-3"><rect class="cls-2" x="50.92" y="36.53" width="39.6" height="39.6"/></g><g class="cls-9"><g class="cls-6"><g class="cls-7"><rect class="cls-8" x="50.92" y="36.53" width="39.6" height="39.6"/></g></g></g><g><polygon class="cls-4" points="80.43 60.46 80.43 60.45 80.43 60.45 80.43 60.46"/><path class="cls-4" d="m76.46,53.13c.29-1.37.64-2.71,1.04-3.97.4-1.25.85-2.44,1.36-3.52.5-1.07,1.04-2.02,1.61-2.82.56-.79,2.15-2.44,2.77-2.88.61-.43,1.23-.65,1.86-.65.29,0,.53.06.7.19.16.12.22.27.22.52.07.22.2.25.28.25s.15-.03.28-.16c.22-.58.25-1.08.07-1.48-.18-.42-.55-.63-1.08-.63-.65,0-1.3.22-1.94.65-.63.42-1.25,1-1.85,1.7-.59.7-2.16,2.55-2.7,3.49-.53.91-1.03,1.9-1.5,2.94-.46,1.02-.88,2.08-1.26,3.16-.35,1.01-.65,1.98-.88,2.9-.1-.05-.2-.09-.3-.13-.17-.06-.37-.09-.59-.09-.65,0-1.24.16-1.77.47-.53.31-.99.72-1.37,1.22-.38.5-.66,1.09-.85,1.76s-.25,1.35-.19,2.06c.05.62.25,1.08.58,1.37.33.28.68.42,1.05.42.22-.06.46-.19.74-.39.27-.2.55-.45.82-.74.26-.28.53-.61.78-.98.06-.09.12-.17.17-.26-.03.26-.04.53-.03.82,0,.44.08.81.23,1.1.17.31.44.47.8.47v-.15h0s0,0,0,0v.15c.19,0,.4-.07.61-.2.2-.12.39-.28.57-.45.18-.18.35-.37.5-.58.16-.21.27-.4.37-.61.02-.14-.04-.26-.16-.32-.06-.03-.11-.05-.16-.05s-.16.06-.19.11c-.14.25-.3.47-.47.67-.15.18-.3.26-.46.26-.06,0-.21,0-.28-.36-.06-.3-.07-.66-.04-1.06.14-1.39.35-2.79.64-4.17Zm-1.38,1.12c-.04.16-.08.34-.12.51-.14.5-.32.99-.54,1.46-.21.47-.45.88-.7,1.24-.24.35-.49.64-.75.86-.24.2-.44.31-.6.31-.16,0-.31-.08-.45-.23-.15-.15-.23-.41-.26-.75-.05-.64-.02-1.22.11-1.75.12-.53.3-.99.54-1.37.24-.38.52-.68.85-.89.32-.21.66-.32,1-.32h.02c.23,0,.44.04.62.13.18.09.3.22.37.32-.02.16-.05.32-.09.48Z"/><path class="cls-4" d="m90.22,40.56h-.19c-1.62,0-3.17.8-4.6,2.37-1.47,1.62-2.9,4.19-4.27,7.65-.33.83-.63,1.67-.9,2.5-.27.83-.5,1.65-.68,2.42-.19.79-.33,1.48-.42,2.11-.1.64-.14,1.17-.12,1.57.02.5.16.87.41,1.09.25.22.55.34.91.35,0,0,.07,0,.07,0,.46,0,.96-.15,1.46-.45.53-.31,1.01-.71,1.44-1.2.43-.49.79-1.05,1.05-1.66.27-.62.39-1.23.37-1.82-.02-.46-.13-.88-.33-1.24-.21-.39-.56-.6-1.11-.62-.27,0-.54.05-.8.15-.27.11-.54.26-.8.44-.25.18-.49.39-.69.61-.04.05-.09.09-.13.14.55-2.39,1.16-4.43,1.8-6.07.7-1.79,1.44-3.24,2.21-4.31.76-1.06,1.55-1.82,2.35-2.26.74-.4,1.49-.61,2.23-.61h.16c.36.02.64.1.88.21v-1.31c-.1-.02-.2-.04-.31-.04Zm-9.78,19.9h0s0,0,0,0h0Zm.8-4.79c.25-.31.51-.54.79-.69.26-.14.51-.2.74-.2v-.14h0l.05.14c.19,0,.36.1.51.29.15.2.24.54.27,1.02.02.42-.04.85-.19,1.26-.15.42-.35.8-.59,1.13-.24.33-.53.6-.85.79-.29.18-.55.25-.94.27-.23,0-.41-.08-.52-.21-.12-.14-.17-.38-.15-.73.02-.66.12-1.24.28-1.73.16-.48.36-.89.61-1.21Z"/><path class="cls-4" d="m53.04,74.48c.65.24,1.44.36,2.35.36,1.23,0,2.33-.18,3.27-.52.95-.35,1.8-.83,2.52-1.44.73-.61,1.35-1.33,1.87-2.16.51-.82.96-1.71,1.33-2.66.45-1.17.87-2.27,1.27-3.29.4-1.04.81-2.1,1.21-3.21.41-1.11.82-2.31,1.25-3.62.43-1.3.91-2.81,1.43-4.5.07-.21.07-.42.02-.63-.04-.17-.12-.35-.25-.54-.11-.17-.26-.36-.48-.36-.23,0-.41.18-.51.53-.1.29-.19.56-.29.81-.08.19-.15.39-.21.58-.05,0-.1,0-.15,0-.49,0-.96.12-1.39.36-.48.26-.92.65-1.3,1.17-.38.5-.7,1.04-.95,1.6-.26.56-.45,1.11-.56,1.62-.12.54-.14.96-.06,1.27.07.3.2.52.38.66.41.32.96.28,1.46-.13.25-.2.5-.48.74-.83.1-.14.2-.3.31-.47l-.54,1.72c-.29.9-.58,1.85-.88,2.83l-.86,2.79c-.4,1.37-.88,2.53-1.41,3.45-.53.92-1.12,1.68-1.76,2.25-.63.57-1.32.98-2.04,1.22-1.43.48-3.04.45-4.44.14-.69-.15-1.32-.37-1.87-.66-.54-.29-1.01-.65-1.41-1.14l-.19-.22v1.55c.15.18.3.35.46.49.45.4,1.01.73,1.66.96Zm12.47-15.11c-.26.31-.45.46-.56.46s-.19-.1-.24-.3c-.04-.16-.06-.43-.04-.81,0-.38.07-.79.19-1.25s.28-.92.5-1.4c.22-.47.52-.9.89-1.29.13-.15.31-.24.54-.29.22-.04.47-.07.73-.07h.2c.09,0,.17,0,.23.03-.18.66-.41,1.3-.71,1.94-.29.64-.59,1.21-.89,1.72-.3.51-.58.92-.84,1.23Z"/></g></g><g><path class="cls-5" d="m122.9,46.31v5.97h-.5c-.37-1.56-1.07-2.75-2.08-3.58s-2.17-1.24-3.45-1.24c-1.08,0-2.06.31-2.96.93-.9.62-1.55,1.43-1.97,2.42-.53,1.28-.8,2.7-.8,4.27s.19,2.94.58,4.21c.39,1.27,1,2.22,1.83,2.87.83.65,1.9.97,3.22.97,1.08,0,2.08-.24,2.98-.71s1.85-1.29,2.85-2.45v1.49c-.96,1.01-1.97,1.74-3.02,2.19-1.04.45-2.27.68-3.66.68-1.84,0-3.47-.37-4.89-1.1-1.43-.74-2.53-1.79-3.3-3.17s-1.16-2.85-1.16-4.41c0-1.64.43-3.2,1.29-4.67.86-1.47,2.02-2.62,3.48-3.43s3.01-1.22,4.65-1.22c1.21,0,2.49.26,3.83.79.78.3,1.27.46,1.49.46.27,0,.51-.1.7-.3s.33-.51.39-.95h.5Z"/><path class="cls-5" d="m138.21,46.46c2.74-.1,4.97.7,6.68,2.4s2.57,3.83,2.57,6.39c0,2.18-.64,4.1-1.92,5.76-1.69,2.2-4.08,3.3-7.17,3.3s-5.49-1.05-7.19-3.15c-1.34-1.66-2.01-3.63-2.01-5.9,0-2.56.87-4.69,2.61-6.39,1.74-1.71,3.88-2.51,6.42-2.41Zm.15.81c-1.57,0-2.77.8-3.59,2.41-.67,1.32-1,3.22-1,5.69,0,2.94.52,5.11,1.55,6.51.72.98,1.73,1.47,3.02,1.47.87,0,1.6-.21,2.18-.63.75-.54,1.33-1.41,1.74-2.6.42-1.19.62-2.74.62-4.65,0-2.28-.21-3.98-.63-5.11-.42-1.13-.96-1.93-1.62-2.39-.66-.47-1.41-.7-2.27-.7Z"/><path class="cls-5" d="m158.71,46.7l8.49,10.68v-7.4c0-1.03-.15-1.73-.44-2.09-.41-.49-1.09-.73-2.04-.71v-.47h5.69v.47c-.73.09-1.22.21-1.47.36-.25.15-.44.39-.58.72-.14.33-.21.91-.21,1.72v14.33h-.43l-11.64-14.33v10.94c0,.99.23,1.66.68,2.01.45.35.97.52,1.55.52h.41v.47h-6.11v-.47c.95,0,1.61-.2,1.98-.58.37-.38.56-1.03.56-1.94v-12.15l-.37-.46c-.36-.46-.69-.76-.96-.9s-.68-.22-1.21-.24v-.47h6.11Z"/><path class="cls-5" d="m187.08,46.31l.14,5.74h-.52c-.25-1.44-.85-2.6-1.81-3.47-.96-.88-2-1.31-3.12-1.31-.86,0-1.55.23-2.05.69-.5.46-.75.99-.75,1.59,0,.38.09.72.27,1.02.25.4.64.79,1.18,1.18.4.28,1.32.77,2.75,1.49,2.01.99,3.37,1.93,4.08,2.81.69.88,1.04,1.89,1.04,3.02,0,1.44-.56,2.68-1.68,3.71-1.12,1.04-2.54,1.55-4.27,1.55-.54,0-1.05-.05-1.54-.17s-1.09-.32-1.82-.62c-.41-.17-.74-.25-1-.25-.22,0-.45.08-.7.25-.25.17-.44.43-.6.77h-.47v-6.5h.47c.37,1.83,1.09,3.22,2.15,4.18,1.06.96,2.21,1.44,3.43,1.44.95,0,1.7-.26,2.27-.77.56-.52.84-1.12.84-1.8,0-.41-.11-.8-.32-1.18s-.54-.74-.98-1.09c-.44-.34-1.22-.79-2.34-1.34-1.57-.77-2.69-1.43-3.38-1.97s-1.21-1.15-1.58-1.82-.55-1.41-.55-2.21c0-1.37.5-2.54,1.51-3.5,1.01-.96,2.28-1.45,3.81-1.45.56,0,1.1.07,1.62.2.4.1.88.29,1.45.57.57.27.97.41,1.2.41s.39-.07.52-.2.25-.46.36-.98h.38Z"/><path class="cls-5" d="m193.78,46.7h8.89v.47h-.44c-.67,0-1.13.07-1.38.21-.25.14-.43.33-.53.58-.11.25-.16.86-.16,1.84v8.43c0,1.54.12,2.56.35,3.06.23.5.62.91,1.15,1.24s1.21.5,2.02.5c.93,0,1.72-.21,2.38-.63.66-.42,1.15-1,1.47-1.73.33-.74.49-2.02.49-3.85v-7.02c0-.77-.08-1.32-.24-1.65-.16-.33-.36-.56-.61-.69-.38-.19-.92-.29-1.61-.29v-.47h5.95v.47h-.36c-.48,0-.88.1-1.21.29-.32.19-.55.49-.7.88-.11.27-.17.76-.17,1.46v6.54c0,2.02-.13,3.48-.4,4.38s-.92,1.72-1.95,2.48c-1.03.75-2.44,1.13-4.23,1.13-1.49,0-2.64-.2-3.45-.6-1.11-.54-1.89-1.24-2.35-2.08s-.69-1.98-.69-3.42v-8.43c0-.99-.05-1.61-.17-1.85-.11-.24-.3-.43-.57-.58-.27-.14-.77-.21-1.5-.2v-.47Z"/><path class="cls-5" d="m232.21,57.87l-.65,6.04h-15.29v-.47h.57c.5,0,.9-.09,1.21-.27.22-.12.39-.32.51-.61.09-.2.14-.74.14-1.6v-11.32c0-.88-.05-1.43-.14-1.65s-.28-.41-.56-.58c-.28-.16-.67-.25-1.15-.25h-.57v-.47h9.18v.47h-.75c-.5,0-.9.09-1.21.27-.22.12-.39.32-.52.61-.09.2-.14.74-.14,1.6v10.97c0,.88.05,1.44.15,1.68.1.24.3.42.6.54.21.08.72.11,1.54.11h1.43c.91,0,1.68-.16,2.29-.48s1.14-.83,1.58-1.52c.45-.69.87-1.72,1.26-3.07h.52Z"/><path class="cls-5" d="m251,46.7v4.66h-.46c-.27-1.08-.57-1.85-.9-2.32-.33-.47-.78-.84-1.36-1.12-.32-.15-.88-.23-1.69-.23h-1.28v13.28c0,.88.05,1.43.15,1.65.1.22.29.41.57.58.28.16.67.25,1.16.25h.57v.47h-9.01v-.47h.57c.5,0,.9-.09,1.21-.27.22-.12.39-.32.52-.61.09-.2.14-.74.14-1.6v-13.28h-1.24c-1.16,0-2,.25-2.53.74-.74.69-1.2,1.66-1.4,2.93h-.48v-4.66h15.46Z"/><path class="cls-5" d="m265.31,63.44v.47h-9v-.47h.57c.5,0,.9-.09,1.21-.27.22-.12.39-.32.51-.61.09-.2.14-.74.14-1.6v-11.32c0-.88-.05-1.43-.14-1.65s-.28-.41-.57-.58c-.28-.16-.67-.25-1.15-.25h-.57v-.47h9v.47h-.57c-.5,0-.9.09-1.21.27-.22.12-.39.32-.52.61-.09.2-.14.74-.14,1.6v11.32c0,.88.05,1.43.15,1.65.1.22.29.41.57.58.28.16.67.25,1.15.25h.57Z"/><path class="cls-5" d="m276.23,46.7l8.49,10.68v-7.4c0-1.03-.15-1.73-.44-2.09-.41-.49-1.09-.73-2.04-.71v-.47h5.69v.47c-.73.09-1.22.21-1.47.36-.25.15-.45.39-.58.72-.14.33-.21.91-.21,1.72v14.33h-.43l-11.64-14.33v10.94c0,.99.23,1.66.68,2.01.45.35.97.52,1.55.52h.41v.47h-6.11v-.47c.95,0,1.61-.2,1.98-.58s.56-1.03.56-1.94v-12.15l-.37-.46c-.36-.46-.69-.76-.96-.9s-.68-.22-1.21-.24v-.47h6.11Z"/><path class="cls-5" d="m310.32,46.31v6.07h-.47c-.57-1.66-1.42-2.92-2.55-3.78s-2.37-1.29-3.72-1.29-2.36.36-3.21,1.08c-.85.72-1.46,1.73-1.82,3.03s-.53,2.62-.53,3.99c0,1.65.19,3.1.58,4.34s1.02,2.16,1.88,2.74c.87.58,1.9.88,3.09.88.42,0,.84-.04,1.28-.13.44-.09.88-.22,1.34-.39v-3.58c0-.68-.05-1.12-.14-1.31-.09-.2-.29-.38-.58-.54-.29-.16-.65-.24-1.06-.24h-.44v-.47h8.37v.47c-.63.04-1.08.13-1.33.26-.25.13-.44.35-.58.65-.08.16-.11.55-.11,1.18v3.58c-1.1.49-2.25.86-3.43,1.11-1.19.25-2.42.38-3.7.38-1.63,0-2.99-.22-4.07-.67-1.08-.45-2.03-1.03-2.86-1.75-.83-.72-1.47-1.54-1.94-2.44-.59-1.17-.89-2.48-.89-3.92,0-2.59.91-4.78,2.73-6.56s4.11-2.68,6.87-2.68c.85,0,1.62.07,2.31.2.37.07.98.26,1.81.58.83.32,1.33.48,1.48.48.24,0,.46-.09.66-.26.2-.17.39-.5.56-.98h.47Z"/></g></g></g></g></svg>